<svg xmlns="http://www.w3.org/2000/svg" version="1.1" xmlns:xlink="http://www.w3.org/1999/xlink" xmlns:svgjs="http://svgjs.com/svgjs" width="33" height="33"><svg width="33" height="33" viewBox="0 0 33 33" fill="none" xmlns="http://www.w3.org/2000/svg">
<circle cx="16.7144" cy="16.7842" r="16" fill="white"></circle>
<path d="M24.1147 7.72742L24.3151 11.9753L23.8075 11.9753C23.7095 11.2273 23.5759 10.6929 23.4067 10.3723C23.1307 9.85582 22.7611 9.47734 22.298 9.23689C21.8438 8.98754 21.2427 8.86286 20.4947 8.86286L17.9433 8.86286L17.9433 22.7019C17.9433 23.8151 18.0635 24.5097 18.3039 24.7858C18.6423 25.1598 19.1633 25.3468 19.8668 25.3468L20.4947 25.3468L20.4947 25.8411L12.8137 25.8411L12.8137 25.3468L13.4549 25.3468C14.2208 25.3468 14.764 25.1153 15.0846 24.6522C15.2805 24.3672 15.3785 23.7171 15.3785 22.7019L15.3785 8.86286L13.2011 8.86286C12.3551 8.86286 11.754 8.9252 11.3978 9.04987C10.9347 9.21908 10.5384 9.54413 10.2089 10.025C9.87939 10.5059 9.68347 11.156 9.62113 11.9753L9.11352 11.9753L9.32726 7.72742L24.1147 7.72742Z" fill="#000AFF"></path>
</svg><style>@media (prefers-color-scheme: light) { :root { filter: none; } }
</style></svg>