<svg xmlns="http://www.w3.org/2000/svg" version="1.1" xmlns:xlink="http://www.w3.org/1999/xlink" xmlns:svgjs="http://svgjs.com/svgjs" width="33" height="33"><svg width="33" height="33" viewBox="0 0 33 33" fill="none" xmlns="http://www.w3.org/2000/svg">
<circle cx="16.0312" cy="16.7842" r="16" fill="black"></circle>
<path d="M23.4316 7.72742L23.632 11.9753L23.1244 11.9753C23.0264 11.2273 22.8928 10.6929 22.7236 10.3723C22.4476 9.85582 22.078 9.47734 21.6149 9.23689C21.1607 8.98754 20.5596 8.86286 19.8116 8.86286L17.2602 8.86286L17.2602 22.7019C17.2602 23.8151 17.3804 24.5097 17.6208 24.7858C17.9592 25.1598 18.4802 25.3468 19.1837 25.3468L19.8116 25.3468L19.8116 25.8411L12.1306 25.8411L12.1306 25.3468L12.7718 25.3468C13.5377 25.3468 14.0809 25.1153 14.4015 24.6522C14.5974 24.3672 14.6954 23.7171 14.6954 22.7019L14.6954 8.86286L12.518 8.86286C11.672 8.86286 11.0709 8.9252 10.7147 9.04987C10.2516 9.21908 9.85529 9.54413 9.52579 10.025C9.19629 10.5059 9.00037 11.156 8.93803 11.9753L8.43042 11.9753L8.64415 7.72742L23.4316 7.72742Z" fill="#000AFF"></path>
</svg><style>@media (prefers-color-scheme: light) { :root { filter: none; } }
</style></svg>