<svg width="170" height="44" viewBox="0 0 170 44" fill="none" xmlns="http://www.w3.org/2000/svg">
<path d="M166.835 0.779114V14.8466H165.725C165.365 12.1471 164.715 9.99746 163.776 8.39775C162.856 6.79804 161.536 5.52826 159.816 4.58843C158.097 3.6486 156.317 3.17868 154.477 3.17868C152.398 3.17868 150.678 3.81857 149.318 5.09834C147.958 6.35812 147.279 7.79786 147.279 9.41757C147.279 10.6573 147.709 11.7871 148.568 12.807C149.808 14.3067 152.758 16.3063 157.417 18.8059C161.216 20.8455 163.806 22.4152 165.185 23.515C166.585 24.5949 167.655 25.8746 168.395 27.3544C169.155 28.8341 169.535 30.3838 169.535 32.0035C169.535 35.083 168.335 37.7425 165.935 39.9821C163.556 42.2017 160.486 43.3115 156.727 43.3115C155.547 43.3115 154.437 43.2215 153.398 43.0416C152.778 42.9416 151.488 42.5816 149.528 41.9617C147.589 41.3219 146.359 41.0019 145.839 41.0019C145.339 41.0019 144.939 41.1519 144.639 41.4518C144.359 41.7518 144.149 42.3717 144.009 43.3115H142.899V29.364H144.009C144.529 32.2835 145.229 34.4731 146.109 35.9328C146.989 37.3726 148.328 38.5724 150.128 39.5322C151.948 40.492 153.937 40.9719 156.097 40.9719C158.597 40.9719 160.566 40.312 162.006 38.9923C163.466 37.6725 164.196 36.1128 164.196 34.3131C164.196 33.3133 163.916 32.3035 163.356 31.2837C162.816 30.2638 161.966 29.314 160.806 28.4342C160.026 27.8343 157.897 26.5645 154.417 24.6248C150.938 22.6652 148.458 21.1055 146.979 19.9457C145.519 18.7859 144.409 17.5061 143.649 16.1064C142.889 14.7066 142.509 13.1669 142.509 11.4872C142.509 8.56772 143.629 6.05817 145.869 3.95855C148.108 1.83892 150.958 0.779114 154.417 0.779114C156.577 0.779114 158.867 1.30902 161.286 2.36883C162.406 2.86874 163.196 3.1187 163.656 3.1187C164.176 3.1187 164.596 2.96872 164.915 2.66878C165.255 2.34883 165.525 1.71895 165.725 0.779114H166.835Z" fill="black"/>
<path d="M116.412 3.92853V20.0056H125.35C127.67 20.0056 129.219 19.6557 129.999 18.9558C131.039 18.036 131.619 16.4163 131.739 14.0967H132.849V28.2542H131.739C131.459 26.2745 131.179 25.0048 130.899 24.4449C130.539 23.745 129.949 23.1951 129.13 22.7951C128.31 22.3952 127.05 22.1953 125.35 22.1953H116.412V35.6029C116.412 37.4025 116.492 38.5023 116.652 38.9023C116.812 39.2822 117.092 39.5921 117.492 39.8321C117.892 40.0521 118.651 40.162 119.771 40.162H126.67C128.97 40.162 130.639 40.0021 131.679 39.6821C132.719 39.3622 133.719 38.7323 134.679 37.7925C135.918 36.5527 137.188 34.683 138.488 32.1835H139.688L136.178 42.3816H104.834V41.2718H106.274C107.233 41.2718 108.143 41.0419 109.003 40.582C109.643 40.262 110.073 39.7821 110.293 39.1422C110.533 38.5023 110.653 37.1926 110.653 35.2129V8.78766C110.653 6.20812 110.393 4.6184 109.873 4.01851C109.153 3.21865 107.953 2.81872 106.274 2.81872H104.834V1.70892H136.178L136.628 10.6173H135.458C135.038 8.47771 134.569 7.00798 134.049 6.20812C133.549 5.40826 132.799 4.79837 131.799 4.37845C130.999 4.0785 129.589 3.92853 127.57 3.92853H116.412Z" fill="black"/>
<path d="M76.5166 42.3816L60.7994 8.15777V35.3329C60.7994 37.8325 61.0693 39.3922 61.6092 40.0121C62.3491 40.8519 63.5189 41.2718 65.1186 41.2718H66.5583V42.3816H52.4009V41.2718H53.8406C55.5603 41.2718 56.7801 40.7519 57.5 39.7121C57.9399 39.0722 58.1598 37.6125 58.1598 35.3329V8.75766C58.1598 6.95798 57.9599 5.65822 57.56 4.85836C57.28 4.27846 56.7601 3.79855 56.0002 3.41862C55.2604 3.01869 54.0606 2.81872 52.4009 2.81872V1.70892H63.9188L78.6762 33.5332L93.1936 1.70892H104.712V2.81872H103.302C101.562 2.81872 100.332 3.33863 99.6124 4.37845C99.1725 5.01833 98.9526 6.47807 98.9526 8.75766V35.3329C98.9526 37.8325 99.2325 39.3922 99.7924 40.0121C100.532 40.8519 101.702 41.2718 103.302 41.2718H104.712V42.3816H87.4346V41.2718H88.8744C90.614 41.2718 91.8338 40.7519 92.5337 39.7121C92.9736 39.0722 93.1936 37.6125 93.1936 35.3329V8.15777L77.5064 42.3816H76.5166Z" fill="black"/>
<path d="M52.3384 41.2718V42.3816H34.9115V41.2718H36.3512C38.0309 41.2718 39.2507 40.7819 40.0106 39.8021C40.4905 39.1622 40.7305 37.6225 40.7305 35.1829V8.90764C40.7305 6.848 40.6005 5.48825 40.3405 4.82837C40.1406 4.32845 39.7306 3.89853 39.1107 3.5386C38.2309 3.05868 37.3111 2.81872 36.3512 2.81872H34.9115V1.70892H52.3384V2.81872H50.8686C49.2089 2.81872 47.9992 3.30864 47.2393 4.28846C46.7394 4.92835 46.4894 6.46807 46.4894 8.90764V35.1829C46.4894 37.2426 46.6194 38.6023 46.8794 39.2622C47.0793 39.7621 47.4992 40.192 48.1391 40.552C48.999 41.0319 49.9088 41.2718 50.8686 41.2718H52.3384Z" fill="black"/>
<path d="M33.8294 1.70892L34.2793 11.2472H33.1395C32.9195 9.56752 32.6196 8.36773 32.2396 7.64786C31.6198 6.48807 30.7899 5.63822 29.7501 5.09832C28.7303 4.53842 27.3805 4.25847 25.7008 4.25847H19.9718V35.3329C19.9718 37.8325 20.2418 39.3922 20.7817 40.0121C21.5416 40.8519 22.7113 41.2718 24.2911 41.2718H25.7008V42.3816H8.4539V41.2718H9.89364C11.6133 41.2718 12.8331 40.7519 13.553 39.7121C13.9929 39.0722 14.2129 37.6125 14.2129 35.3329V4.25847H9.32374C7.42408 4.25847 6.07432 4.39844 5.27447 4.67839C4.23465 5.05832 3.34481 5.78819 2.60495 6.868C1.86508 7.94781 1.42516 9.40755 1.28518 11.2472H0.145386L0.6253 1.70892H33.8294Z" fill="black"/>
</svg>
